<?xml version="1.0" encoding="utf-8"?>
<!-- Generator: Adobe Illustrator 19.0.0, SVG Export Plug-In . SVG Version: 6.00 Build 0)  -->
<svg version="1.1" id="Layer_1" xmlns="http://www.w3.org/2000/svg" xmlns:xlink="http://www.w3.org/1999/xlink" x="0px" y="0px"
	 viewBox="0 0 283.5 283.5" style="enable-background:new 0 0 283.5 283.5;" xml:space="preserve">
<rect id="XMLID_2_" style="fill:#FFFFFF;" width="283.5" height="283.5"/>
<g id="ryRnoB.tif">
	<g id="XMLID_1_">
		<path id="XMLID_47_" style="fill:#FFFFFF;" d="M255,98.4c-5.8,4.5-7.3,9.8-6.4,16.5c2,15.5,3.5,31.1,5.3,46.6
			c0.1,1,0.9,1.9,1.3,2.8c0.6-0.9,1.7-1.7,1.8-2.6c0.8-5.9,2.3-11.9,2-17.8C258.1,128.8,256.4,113.8,255,98.4z M25.4,108.9
			c2.7,1.9,5,3.5,7.4,5.2c1.7-2.4,3.2-4.5,4.8-6.8c2.5,1.6,4.8,3.2,7.4,4.8c1.5-2.8,2.8-5.3,4.3-8c-2.5-1.9-4.9-3.6-7.4-5.4
			c-1.5,2.2-2.8,4.2-4.2,6.2c-2.5-1.6-4.8-3-7.3-4.6C28.7,103.3,27.1,106,25.4,108.9z M80.6,169.6c-1.5,2.3-2.8,4.5-4.3,6.7
			c-2.7-1.8-5-3.4-7.7-5.1c-1.5,2.8-3,5.4-4.5,8.1c2.7,1.9,5.1,3.6,7.7,5.4c1.5-2.3,2.8-4.3,4.1-6.3c2.6,1.7,4.8,3.2,7.1,4.7
			C89,175.4,89,175.1,80.6,169.6z M106.6,177c2.5,1.7,4.7,3.2,7.3,4.9c1.7-2.4,3.4-4.7,5.1-7.2c-2.8-1.8-5.2-3.4-7.9-5.1
			C109.5,172.2,108.1,174.5,106.6,177z"/>
		<path id="XMLID_46_" d="M230.9,92c1.8,3.2,3.6,6.5,5.7,10.2c-6.5,5.3-4,12.6-3.2,19.6c0.7,6.7,2.1,13.4,2.5,20.2
			c0.3,4.1-0.3,8.4-1.4,12.3c-1.8,6.7-5.8,9.2-12.7,10.2c-9.9,1.4-18.4-0.8-25.1-8.6c-2-2.3-3.6-2.1-5.9-0.3
			c-4.4,3.5-8.2,8.3-14.4,8.8c-3.5,0.3-7,0.3-10.5,0.2c-2.5-0.1-3.6,0.6-4.3,3.2c-1.7,6.1-3.7,12.2-6,18.1
			c-3.7,9.5-13.5,11.8-22.2,8.1c-3.2-1.3-6.1-3.3-9.1-5.7c7.1-0.3,14.3,0.1,19.8-4.9c5.1-4.8,9.8-10,14.7-15.1
			c-2.5-4.2-4.7-7.9-7-11.5c-1.2-1.9-1.4-3.4,0-5.3c1.8-2.5,3.3-5.2,4.9-7.9c0.5,0.2,0.9,0.3,1,0.4c3.3,7.4,9.7,7.3,16.2,6.7
			c4.1-0.3,8.2-0.9,12.3-1.4c0.1-0.5,0.2-0.9,0.4-1.4c-2.7-1.4-5.4-2.7-8.2-4.1c1.6-16.8,14.2-19.4,24.5-13.6
			c7.5,4.2,7.6,12.6,0.7,17.8c-0.4,0.3-1,0.4-1.5,0.6c0.2,0.4,0.3,0.9,0.5,1.3c2.9,0.3,5.8,0.7,8.6,0.8c4.3,0.2,8.6,0,12.9,0.1
			c3.6,0,5.5-1.6,5.2-5.2c-0.8-7.9-1.7-15.8-2.7-23.7c-0.7-5.7-1.7-11.3-2.7-17c-1-5.6,1.9-9.4,5.4-13C229.9,92,230.4,92,230.9,92z"
			/>
		<path id="XMLID_43_" d="M23.9,148.5c2-7.2,7.3-11.5,13.5-15c2.1-1.2,3.4-2.3,2.6-5.1c-1.5-4.9,0.6-8.6,5.6-11.4
			c0.9,5.9,1.8,11.6,2.6,17.3c0.6,3.9,1.2,7.7,1.7,11.6c0.5,3.5,2.2,5.3,6,5c2.9-0.2,5.8-0.2,8.6,0c6.4,0.4,12.4,0.2,16.1-7.1
			c0.6,1.6,1.1,2.3,1.2,3.1c0.1,2.7,1.8,3.8,4,3.8c7.8,0,15.7,0.1,23.5-0.4c4.6-0.3,5.1-1.7,2-5.2c-2.7-3-2.9-5.8-0.9-9.2
			c1.4-2.5,2.5-5.1,4-8.1c4.5,8.9,5.9,17.6,3.5,26.8c-1.5,5.8-6,8.7-11.5,9.2c-7.8,0.6-15.6,0.7-23.4,0c-2.4-0.2-4.5-3.5-7-5.7
			c-3,7.4-10,6.6-16.6,6.6c-0.1,0-0.3,0-0.4,0c-10.8,0-11.8-0.7-14.5-11.1c-0.3-1.1-0.6-2.2-0.9-3.3c-4.4,2.3-4.9,9.3-11.5,8.3
			c-3.1-0.5-6.3-0.8-8.1-3.9C23.9,152.7,23.9,150.6,23.9,148.5z M41,136.2c-2.8,2-5.3,3.5-7.5,5.4c-1.8,1.5-1.8,3.3,1,3.8
			c2.6,0.5,5.2,0.6,8.2,1C42,142.6,41.6,139.7,41,136.2z"/>
		<path id="XMLID_42_" d="M255,98.4c1.4,15.5,3.1,30.5,4,45.5c0.3,5.9-1.1,11.9-2,17.8c-0.1,0.9-1.2,1.7-1.8,2.6
			c-0.5-0.9-1.2-1.8-1.3-2.8c-1.8-15.5-3.3-31.1-5.3-46.6C247.7,108.2,249.1,102.8,255,98.4z"/>
		<path id="XMLID_41_" d="M25.4,108.9c1.7-3,3.3-5.6,5-8.5c2.5,1.6,4.8,3,7.3,4.6c1.4-2,2.7-3.9,4.2-6.2c2.5,1.8,4.8,3.5,7.4,5.4
			c-1.5,2.7-2.8,5.2-4.3,8c-2.5-1.7-4.9-3.2-7.4-4.8c-1.6,2.3-3.1,4.4-4.8,6.8C30.4,112.5,28.1,110.8,25.4,108.9z"/>
		<path id="XMLID_40_" d="M80.6,169.6c8.4,5.5,8.4,5.7,2.4,13.5c-2.2-1.5-4.5-3-7.1-4.7c-1.3,2-2.6,4-4.1,6.3
			c-2.6-1.8-5-3.5-7.7-5.4c1.5-2.7,2.9-5.3,4.5-8.1c2.6,1.7,5,3.3,7.7,5.1C77.7,174.1,79.1,172,80.6,169.6z"/>
		<path id="XMLID_39_" d="M106.6,177c1.5-2.5,2.9-4.8,4.5-7.4c2.6,1.7,5.1,3.3,7.9,5.1c-1.8,2.5-3.4,4.7-5.1,7.2
			C111.3,180.2,109.1,178.7,106.6,177z"/>
		<path id="XMLID_38_" style="fill:#FFFFFF;" d="M41,136.2c0.6,3.5,1.1,6.4,1.7,10.2c-3.1-0.4-5.7-0.5-8.2-1c-2.8-0.5-2.7-2.2-1-3.8
			C35.7,139.7,38.2,138.2,41,136.2z"/>
	</g>
</g>
</svg>
